#format: frame checksums
#version: 2
#hash: MD5
#tb 0: 1/15
#media_type 0: video
#codec_id 0: rawvideo
#dimensions 0: 320x180
#sar 0: 0/1
#tb 1: 1/44100
#media_type 1: audio
#codec_id 1: pcm_s16le
#sample_rate 1: 44100
#channel_layout 1: 3
#channel_layout_name 1: stereo
#stream#, dts,        pts, duration,     size, hash
0,          0,          0,        1,   172800, 66d8edb84c2e865e27b470ad179e028d
1,          0,          0,    22050,    88200, e9ded829730eccd2d0273d7cc06be58c
0,          1,          1,        1,   172800, 24b32b5fe2d8b61aa2272e289278aee5
0,          2,          2,        1,   172800, a8bc359bd5be4d10fb8dde959540867f
0,          3,          3,        1,   172800, 0e38069502bdb4662ab19782f2b595b0
0,          4,          4,        1,   172800, a4767544078e283216e1d9cad6c19752
0,          5,          5,        1,   172800, 7f1bdb81c71b5e2b83b976e39e8c0473
0,          6,          6,        1,   172800, 6dca82e53b23db1447bc316adafcd96d
0,          7,          7,        1,   172800, 5f6cbc870219f2dc1cded2b6d1e62d04
1,      22050,      22050,    22050,    88200, e9ded829730eccd2d0273d7cc06be58c
0,          8,          8,        1,   172800, 62a50642cdb25a037aa93f8ade4cea48
0,          9,          9,        1,   172800, 540e94df214de2b9a1390a7c286e59b7
0,         10,         10,        1,   172800, 38c1bddd56f3f6db6ecd68f2dba72bc2
0,         11,         11,        1,   172800, 1804a37bab20e83deccf3faef634cbbd
0,         12,         12,        1,   172800, 938b0ab76bff270f0add79810a53ac6a
0,         13,         13,        1,   172800, 278cd1d71bfeb6c9722898e1678075ce
0,         14,         14,        1,   172800, a23675b9ee3b08b2e73ca9537b1b2fbd
0,         15,         15,        1,   172800, de587221f7fa2967e8d06d0e057f83db
1,      44100,      44100,     2940,    11760, e3b746a110920a585a311c390a2bd1de
